<svg xmlns="http://www.w3.org/2000/svg" viewBox="0 0 68.849 22.232" xmlns:v="https://vecta.io/nano"><path d="M9.508 22.229V17.2h2.333a1.82 1.82 0 0 1 1.315.445 1.16 1.16 0 0 1 .345.856v.013a1.17 1.17 0 0 1-.662 1.086c.569.136.962.655.94 1.239v.015c0 .918-.746 1.378-1.881 1.378zm1.076-.971h1.314c.488 0 .784-.171.784-.544V20.7c0-.338-.253-.547-.817-.547h-1.281zm0-2.025h1.019c.488 0 .797-.157.797-.532v-.015c0-.331-.259-.517-.724-.517h-1.093zm-5.829 2.995V17.2h2.332c.48-.031.953.129 1.315.445.228.226.352.535.344.856v.013a1.17 1.17 0 0 1-.659 1.085 1.23 1.23 0 0 1 .941 1.239v.015c0 .911-.748 1.375-1.883 1.375zm1.08-.971h1.31c.488 0 .784-.17.784-.544V20.7c0-.338-.253-.547-.819-.547H5.835zm0-2.025h1.019c.488 0 .796-.157.796-.532v-.015c0-.331-.258-.517-.724-.517h-1.09zM0 22.229V17.2h2.335a1.82 1.82 0 0 1 1.315.445c.228.225.353.535.344.856v.013a1.17 1.17 0 0 1-.659 1.086 1.23 1.23 0 0 1 .939 1.238v.015c0 .911-.745 1.375-1.881 1.375zm1.078-.971h1.315c.488 0 .783-.171.783-.544V20.7c0-.338-.253-.547-.818-.547h-1.28zm0-2.025h1.019c.488 0 .797-.157.797-.532v-.015c0-.331-.258-.517-.725-.517h-1.09zm3.933-2.88l-.434-1.405h-2.27l.308-1.019h8.521l.307 1.019H9.175l-.433 1.405zm1.595-3.149a.51.51 0 0 0-.112-.704l-2.038-1.482c-.432-.313-.722-.785-.807-1.312s.044-1.066.358-1.498l.002-.002 1.075-1.482.308.223a.51.51 0 0 0 .117.703l2.038 1.482c.433.313.723.786.808 1.313.016.106.024.214.024.321-.001.425-.137.839-.387 1.182L6.913 13.43zm2.193-2.83a1.55 1.55 0 0 0 .3-.915c.001-.084-.006-.167-.02-.25a1.56 1.56 0 0 0-.628-1.019L5.89 6.337a2.91 2.91 0 0 1-1.175-1.909 3.07 3.07 0 0 1-.035-.463c-.001-.614.193-1.213.556-1.709L6.871 0l.244.177c-.139.194-.196.436-.158.672s.166.448.361.587l3.093 2.248c1.3.949 1.59 2.77.648 4.075l-2.018 2.79z"/><path d="M19.277 1.852h.733v20.376h-.733z" fill="#6c747b"/><path d="M35.176 9.913h1.025v5.345h-1.025z"/><path d="M38.361 12.073v1.025h-5.345v-1.025zm-5.454 3.985h-1.546l-.614-1.599h-2.814l-.581 1.599h-1.508l2.741-7.039h1.502zm-2.617-2.786l-.97-2.612-.95 2.612zm12.019 2.666V9.02h3.067a4.08 4.08 0 0 1 1.406.185 1.54 1.54 0 0 1 .769.658 1.97 1.97 0 0 1 .289 1.044 1.74 1.74 0 0 1-.477 1.241 2.41 2.41 0 0 1-1.473.642c.2.089.387.205.556.344a4.75 4.75 0 0 1 .76.92l1.204 1.883h-1.155l-.915-1.439q-.401-.622-.66-.953c-.129-.178-.285-.334-.463-.463a1.37 1.37 0 0 0-.418-.185 2.75 2.75 0 0 0-.509-.033h-1.065v3.074zm.915-3.864h1.968a2.95 2.95 0 0 0 .98-.13c.221-.074.41-.22.538-.415a1.12 1.12 0 0 0 .185-.621 1.03 1.03 0 0 0-.353-.808 1.67 1.67 0 0 0-1.129-.315h-2.19zm9.211 3.246a3.16 3.16 0 0 1-.909.566c-.299.112-.617.167-.936.165a1.82 1.82 0 0 1-1.269-.403 1.33 1.33 0 0 1-.444-1.031 1.37 1.37 0 0 1 .166-.672 1.39 1.39 0 0 1 .439-.488c.187-.125.394-.219.611-.278a6.23 6.23 0 0 1 .755-.128 7.75 7.75 0 0 0 1.514-.293q.005-.175.005-.221c.028-.267-.059-.534-.241-.732a1.42 1.42 0 0 0-.967-.288 1.5 1.5 0 0 0-.885.21c-.221.192-.37.453-.422.741l-.834-.113a2.06 2.06 0 0 1 .37-.861 1.65 1.65 0 0 1 .75-.505 3.35 3.35 0 0 1 1.137-.177 3.01 3.01 0 0 1 1.043.151c.226.073.43.204.59.38a1.34 1.34 0 0 1 .264.578c.036.26.05.522.043.783v1.134a11.91 11.91 0 0 0 .055 1.499 1.89 1.89 0 0 0 .215.602h-.887c-.091-.195-.147-.404-.164-.619zm-.07-1.897a6.24 6.24 0 0 1-1.389.321 3.24 3.24 0 0 0-.741.169.74.74 0 0 0-.335.278c-.196.313-.136.723.142.967a1.11 1.11 0 0 0 .753.227 1.75 1.75 0 0 0 .873-.215 1.32 1.32 0 0 0 .56-.586 2.05 2.05 0 0 0 .137-.849zm4.03 1.76l.122.75c-.211.047-.426.073-.642.076-.248.013-.494-.037-.717-.146a.82.82 0 0 1-.358-.384 3.04 3.04 0 0 1-.106-1.008v-2.883h-.621v-.66h.621V9.686l.845-.509v1.751h.854v.66h-.854v2.931a1.48 1.48 0 0 0 .044.463c.03.069.081.127.146.165a.56.56 0 0 0 .29.061c.126-.001.251-.011.376-.029zm.834-5.181V9.02h.849v.977zm0 5.941v-5.015h.849v5.011zm2.142 0v-5.015h.764v.711a1.8 1.8 0 0 1 1.598-.825c.286-.003.57.052.834.163a1.31 1.31 0 0 1 .569.427 1.64 1.64 0 0 1 .264.628 4.86 4.86 0 0 1 .047.826v3.08h-.849V12.89a2.29 2.29 0 0 0-.099-.776.82.82 0 0 0-.352-.41 1.12 1.12 0 0 0-.594-.157 1.38 1.38 0 0 0-.936.344 1.7 1.7 0 0 0-.394 1.307v2.74zm5.219.415l.826.122a.79.79 0 0 0 .288.556c.255.17.557.253.863.236.321.02.639-.063.91-.236a1.16 1.16 0 0 0 .434-.66 5.42 5.42 0 0 0 .061-1.09 1.75 1.75 0 0 1-1.389.656 1.89 1.89 0 0 1-1.6-.741 2.87 2.87 0 0 1-.566-1.796 3.33 3.33 0 0 1 .259-1.324c.155-.38.419-.706.759-.936.344-.225.748-.34 1.159-.331a1.8 1.8 0 0 1 1.463.717v-.605h.784v4.333a4.11 4.11 0 0 1-.243 1.659c-.164.331-.428.601-.755.771a2.61 2.61 0 0 1-1.272.283 2.4 2.4 0 0 1-1.449-.407c-.375-.285-.577-.743-.533-1.212zm.703-3.01a2.17 2.17 0 0 0 .393 1.435c.245.287.603.452.98.453s.736-.162.983-.448a2.1 2.1 0 0 0 .396-1.414c.037-.497-.108-.991-.408-1.389a1.26 1.26 0 0 0-.984-.463c-.375-.001-.729.17-.962.463a2.04 2.04 0 0 0-.397 1.358z"/></svg>