<svg id="Layer_1" data-name="Layer 1" xmlns="http://www.w3.org/2000/svg" viewBox="0 0 60.75 70.66"><defs><style>.cls-1{fill:#f8d12b;}.cls-2{fill:#1d2674;}</style></defs><circle class="cls-1" cx="50.19" cy="10.13" r="10.13"/><path class="cls-2" d="M16.09,29.52a2.77,2.77,0,0,1-.13-.8.48.48,0,0,1,0-.21l3.55-4.34a2.11,2.11,0,0,0,.53-1.34,1,1,0,0,0-.37-.84,1.4,1.4,0,0,0-.93-.29,1.72,1.72,0,0,0-.68.12,3.9,3.9,0,0,0-.61.31.81.81,0,0,1-.35.17.69.69,0,0,1-.56-.34,1.08,1.08,0,0,1-.24-.63c0-.39.28-.7.85-.93A5,5,0,0,1,19.13,20a3.15,3.15,0,0,1,2.24.76,2.59,2.59,0,0,1,.81,2,3.54,3.54,0,0,1-.86,2.28l-2.63,3.25h3.24a.34.34,0,0,1,.32.17,1.15,1.15,0,0,1,.1.53v.24a1.15,1.15,0,0,1-.1.53.36.36,0,0,1-.32.17H16.35C16.26,30,16.17,29.81,16.09,29.52Z"/><path class="cls-2" d="M28,29.54V28H24.36c-.11,0-.23-.16-.34-.49a2.49,2.49,0,0,1-.18-.81.35.35,0,0,1,0-.16L28,20.4a.47.47,0,0,1,.31-.22,2.47,2.47,0,0,1,.54-.05h.38q.84,0,.84.45v5.75h.53a.34.34,0,0,1,.32.17,1,1,0,0,1,.1.53v.24a1,1,0,0,1-.1.53.34.34,0,0,1-.32.17H30.1v1.57c0,.3-.28.44-.84.44h-.39C28.31,30,28,29.84,28,29.54Zm0-3.21V23.61a3.32,3.32,0,0,1,.15-.74h-.05l-2.2,3.47Z"/><path class="cls-2" d="M31.46,30.84a1,1,0,0,1,.06-.2l4.07-10.09c.11-.28.4-.42.85-.42h.34c.39,0,.59.07.59.22a1.15,1.15,0,0,1,0,.2L33.25,30.64c-.11.28-.39.42-.85.42h-.34C31.66,31.06,31.46,31,31.46,30.84Z"/><path class="cls-2" d="M38.81,29.72a.77.77,0,0,1,.08-.27l3.48-7.66H38.71a.33.33,0,0,1-.32-.16,1.08,1.08,0,0,1-.1-.54v-.23a1.08,1.08,0,0,1,.1-.54.33.33,0,0,1,.32-.16h5.55c.07,0,.16.15.26.46a2.69,2.69,0,0,1,.16.8.57.57,0,0,1,0,.18L41,29.7a.4.4,0,0,1-.28.22,1.91,1.91,0,0,1-.54.06h-.51C39.08,30,38.81,29.9,38.81,29.72Z"/><path class="cls-2" d="M23.09,52.82A20.68,20.68,0,0,1,9.61,46.51C4.13,41,3.21,34.69,3.31,32.72A1,1,0,0,1,3.72,32a25.65,25.65,0,0,1,5.42-3.1,1,1,0,0,1,1.13.25,17,17,0,0,1,3.53,6,1,1,0,0,1-.25,1L12,37.67a9.6,9.6,0,0,0,2.5,3.91,9.86,9.86,0,0,0,3.95,2.54L20,42.59a1,1,0,0,1,1-.27A14.88,14.88,0,0,1,27.1,46a1,1,0,0,1,.15,1,26,26,0,0,1-3.09,5.42,1,1,0,0,1-.76.41ZM5.31,33.28A19.05,19.05,0,0,0,11,45.1a19,19,0,0,0,11.81,5.71,23.22,23.22,0,0,0,2.3-4A14.81,14.81,0,0,0,21,44.42L19.5,46a1,1,0,0,1-1,.27A11.79,11.79,0,0,1,13.12,43,11.62,11.62,0,0,1,10,37.79l0-.11a1,1,0,0,1,.25-1l1.5-1.51A15.26,15.26,0,0,0,9.26,31,23.6,23.6,0,0,0,5.31,33.28Z"/><path class="cls-2" d="M51.56,40.69a1,1,0,0,1-.53-.16,1,1,0,0,1-.31-1.38,23.83,23.83,0,0,0,1.77-3.4,1,1,0,0,1,1.84.78,26.38,26.38,0,0,1-1.92,3.69A1,1,0,0,1,51.56,40.69Z"/><path class="cls-2" d="M41.11,50a1,1,0,0,1-.43-1.9,24.25,24.25,0,0,0,5.65-3.75,1,1,0,1,1,1.33,1.49,26.1,26.1,0,0,1-6.12,4.07A1.07,1.07,0,0,1,41.11,50Z"/><path class="cls-2" d="M30.37,52.41a1,1,0,0,1,0-2,24.33,24.33,0,0,0,3.83-.3,1,1,0,1,1,.32,2A26.1,26.1,0,0,1,30.37,52.41Z"/><path class="cls-2" d="M53.41,37.14a.91.91,0,0,1-.39-.08,1,1,0,0,1-.53-1.31A24,24,0,1,0,6.86,21.61a1,1,0,0,1-1.18.78,1,1,0,0,1-.79-1.18,26,26,0,0,1,51.48,5.2,25.77,25.77,0,0,1-2,10.12A1,1,0,0,1,53.41,37.14Z"/><polygon class="cls-2" points="9.56 20.82 5.37 26.41 2.63 19.99 9.56 20.82"/><polygon class="cls-2" points="3.64 54.62 4.76 56.9 7.28 57.26 5.46 59.04 5.89 61.54 3.64 60.36 1.39 61.54 1.82 59.04 0 57.26 2.52 56.9 3.64 54.62"/><polygon class="cls-2" points="15.51 57.37 17.04 60.47 20.46 60.97 17.98 63.38 18.57 66.79 15.51 65.18 12.45 66.79 13.03 63.38 10.56 60.97 13.98 60.47 15.51 57.37"/><polygon class="cls-2" points="30.38 57.5 32.51 61.83 37.29 62.53 33.83 65.9 34.65 70.66 30.38 68.41 26.1 70.66 26.92 65.9 23.46 62.53 28.24 61.83 30.38 57.5"/><polygon class="cls-2" points="57.11 54.62 55.98 56.9 53.47 57.26 55.29 59.04 54.86 61.54 57.11 60.36 59.36 61.54 58.93 59.04 60.75 57.26 58.23 56.9 57.11 54.62"/><polygon class="cls-2" points="45.24 57.37 43.71 60.47 40.29 60.97 42.77 63.38 42.18 66.79 45.24 65.18 48.3 66.79 47.72 63.38 50.19 60.97 46.77 60.47 45.24 57.37"/></svg>