<svg id="Layer_1" data-name="Layer 1" xmlns="http://www.w3.org/2000/svg" viewBox="0 0 78.56 68.76"><defs><style>.cls-1{fill:#f8d12e;}.cls-2{fill:#2c2e71;}</style></defs><circle class="cls-1" cx="23.46" cy="48.05" r="12"/><path class="cls-2" d="M23.55,67.05a1.58,1.58,0,0,0-.15-.12.76.76,0,0,0-.18-.09.64.64,0,0,0-.18-.06,1,1,0,0,0-.9.27.83.83,0,0,0-.22.33,1,1,0,0,0,.22,1.09,1,1,0,0,0,.7.29l.2,0a.64.64,0,0,0,.18-.06l.18-.09.15-.12a1.19,1.19,0,0,0,.22-.33,1.07,1.07,0,0,0,0-.76A1,1,0,0,0,23.55,67.05Z"/><path class="cls-2" d="M4.73,14.92v9.81a1,1,0,0,0,2,0V14.92a1,1,0,1,0-2,0Z"/><path class="cls-2" d="M6.43,28.92a1,1,0,0,0-1.09-.21,1,1,0,0,0-.32.21,1,1,0,0,0-.3.71,1,1,0,0,0,.3.71,1.21,1.21,0,0,0,.32.22,1,1,0,0,0,.38.07.68.68,0,0,0,.2,0l.19-.05a1,1,0,0,0,.17-.1l.15-.12.13-.15L6.65,30l.06-.18a1.36,1.36,0,0,0,0-.2,1,1,0,0,0-.08-.38A1.19,1.19,0,0,0,6.43,28.92Z"/><path class="cls-2" d="M10.34,1.12a1,1,0,0,0-1.42,0l-7.8,7.8a1,1,0,0,0,0,1.42,1,1,0,0,0,.71.29,1,1,0,0,0,.71-.29l7.8-7.8A1,1,0,0,0,10.34,1.12Z"/><circle class="cls-2" cx="9.46" cy="9.46" r="2"/><path class="cls-2" d="M3.41,3.41a2,2,0,0,0,0-2.82A2,2,0,0,0,.59.59a2,2,0,0,0,0,2.82A2,2,0,0,0,3.41,3.41Z"/><path class="cls-2" d="M42.64,26.78a1,1,0,0,0,1-1V23.39A3.38,3.38,0,0,0,40.26,20H38.87V16.23a1,1,0,1,0-2,0V20H35.49a3.39,3.39,0,0,0-3.39,3.39v3.05a3.37,3.37,0,0,0,2.32,3.21.2.2,0,0,0,.11,0L40.75,31a1.38,1.38,0,0,1,.89,1.3v3a1.38,1.38,0,0,1-1.38,1.38H35.49a1.38,1.38,0,0,1-1.39-1.38V34.13a1,1,0,0,0-2,0v1.19a3.39,3.39,0,0,0,3.39,3.38h1.38v3.77a1,1,0,0,0,2,0V38.7h1.39a3.38,3.38,0,0,0,3.38-3.38v-3a3.4,3.4,0,0,0-2.31-3.22l-.12,0L35,27.74a1.39,1.39,0,0,1-.9-1.3V23.39A1.39,1.39,0,0,1,35.49,22h4.77a1.39,1.39,0,0,1,1.38,1.39v2.39A1,1,0,0,0,42.64,26.78Z"/><path class="cls-2" d="M72.83,36.62a1,1,0,0,0-1,1v9.81a1,1,0,0,0,2,0V37.62A1,1,0,0,0,72.83,36.62Z"/><path class="cls-2" d="M72.12,51.62a1,1,0,0,0,0,1.42,1.21,1.21,0,0,0,.32.22l.19.05a.62.62,0,0,0,.19,0,1.07,1.07,0,0,0,.39-.07,1.21,1.21,0,0,0,.32-.22,1,1,0,0,0,0-1.42A1,1,0,0,0,72.12,51.62Z"/><path class="cls-2" d="M73.21,56.31a1,1,0,0,0-.58-.05l-.19.05a1,1,0,0,0-.32.22,1,1,0,0,0-.3.7,1,1,0,0,0,.08.39.87.87,0,0,0,.22.32,1,1,0,0,0,.7.3,1,1,0,0,0,.71-.3,1,1,0,0,0,.29-.71,1,1,0,0,0-.29-.7A1,1,0,0,0,73.21,56.31Z"/><path class="cls-2" d="M73.21,61.22a1,1,0,0,0-1.39.92,1.5,1.5,0,0,0,0,.2.64.64,0,0,0,.06.18,1.51,1.51,0,0,0,.09.18l.13.15a1,1,0,0,0,.7.29,1.09,1.09,0,0,0,.39-.08,1,1,0,0,0,.32-.21.79.79,0,0,0,.12-.15,1.62,1.62,0,0,0,.1-.18,1.21,1.21,0,0,0,0-.18.71.71,0,0,0,0-.2,1,1,0,0,0-.29-.71A1,1,0,0,0,73.21,61.22Z"/><path class="cls-2" d="M77.44,23.93a1,1,0,0,0-1.42,0l-7.8,7.8a1,1,0,0,0,0,1.41,1,1,0,0,0,1.41,0l7.81-7.8A1,1,0,0,0,77.44,23.93Z"/><circle class="cls-2" cx="76.56" cy="32.26" r="2"/><circle class="cls-2" cx="69.1" cy="24.81" r="2"/><path class="cls-2" d="M62.06,26a4.09,4.09,0,0,0-1.57-5.85l-3.08-1.59a.79.79,0,0,1-.42-.74l.16-3.47A4.11,4.11,0,0,0,56,11.28a4,4,0,0,0-3.09-1.2l-3.46.16a.8.8,0,0,1-.74-.42L47.07,6.73a4.1,4.1,0,0,0-5.85-1.56L38.3,7a.79.79,0,0,1-.85,0L34.53,5.17a4.1,4.1,0,0,0-5.85,1.56l-1.6,3.09a.81.81,0,0,1-.73.42l-3.46-.16a4.1,4.1,0,0,0-4.29,4.28l.16,3.47a.78.78,0,0,1-.42.73l-3.09,1.6A4.1,4.1,0,0,0,13.69,26l1.87,2.92a.81.81,0,0,1,0,.85L13.69,32.7a4.1,4.1,0,0,0,1.56,5.85l3.09,1.59a.78.78,0,0,1,.42.74l-.16,3.47a4.05,4.05,0,0,0,3.25,4.18V62.86a1,1,0,0,0,2,0V48.58l2.49-.11a.84.84,0,0,1,.74.42L28.68,52a4.09,4.09,0,0,0,5.85,1.57l2.92-1.87a.77.77,0,0,1,.85,0l2.92,1.87a4.09,4.09,0,0,0,3.27.51A1,1,0,1,0,44,52.12a2.13,2.13,0,0,1-1.67-.26L39.38,50a2.82,2.82,0,0,0-3,0l-2.92,1.88a2.15,2.15,0,0,1-1.68.26,2.08,2.08,0,0,1-1.31-1.06L28.86,48a2.85,2.85,0,0,0-2.6-1.5l-3.48.16A2.14,2.14,0,0,1,21.21,46a2.08,2.08,0,0,1-.61-1.58L20.76,41a2.79,2.79,0,0,0-1.51-2.6l-3.08-1.6a2.1,2.1,0,0,1-.8-3l1.87-2.92a2.78,2.78,0,0,0,0-3l-1.87-2.92a2.12,2.12,0,0,1-.26-1.68,2.08,2.08,0,0,1,1.06-1.31l3.09-1.6a2.8,2.8,0,0,0,1.5-2.6l-.16-3.47a2.09,2.09,0,0,1,2.19-2.19l3.47.16a2.86,2.86,0,0,0,2.6-1.5l1.6-3.09a2.08,2.08,0,0,1,1.31-1.06,2.12,2.12,0,0,1,1.68.26l2.92,1.87a2.78,2.78,0,0,0,3,0L42.3,6.85a2.1,2.1,0,0,1,3,.8l1.6,3.09a2.77,2.77,0,0,0,2.6,1.5L53,12.08a2.07,2.07,0,0,1,1.57.61,2.12,2.12,0,0,1,.61,1.58L55,17.74a2.8,2.8,0,0,0,1.5,2.6l3.09,1.6a2.11,2.11,0,0,1,1.06,1.31,2.16,2.16,0,0,1-.26,1.68L58.5,27.85a2.82,2.82,0,0,0,0,3l1.88,2.92a2.1,2.1,0,0,1-.8,3l-3.09,1.6A2.8,2.8,0,0,0,55,41l.16,3.47A2.12,2.12,0,0,1,54.54,46a2.17,2.17,0,0,1-1.58.61l-2.35-.11V44.86a1,1,0,0,0-2,0V57.28a1,1,0,0,0,2,0V48.52l2.25.11a4.11,4.11,0,0,0,4.29-4.28L57,40.88a.78.78,0,0,1,.42-.74l3.08-1.59a4.09,4.09,0,0,0,1.57-5.85l-1.87-2.92a.77.77,0,0,1,0-.85Z"/></svg>