<svg id="Layer_1" data-name="Layer 1" xmlns="http://www.w3.org/2000/svg" viewBox="0 0 53.95 78.73"><defs><style>.cls-1{fill:#f8d12b;}.cls-2{fill:#1d2674;}</style></defs><circle class="cls-1" cx="10.38" cy="46.72" r="10.38"/><path class="cls-2" d="M16.2,76.48H14.27V66.35c0-.11-.08-.21-.25-.3a1,1,0,0,0-.48-.14l-4.49.83a.49.49,0,0,0-.46.51,3.83,3.83,0,0,0,.13,1c.09.33.24.5.44.5l2.45-.36v8.08H9.22a.44.44,0,0,0-.42.22,1.45,1.45,0,0,0-.12.68v.31a1.45,1.45,0,0,0,.12.68.46.46,0,0,0,.42.22h7a.44.44,0,0,0,.41-.22,1.32,1.32,0,0,0,.13-.68v-.31a1.32,1.32,0,0,0-.13-.68A.43.43,0,0,0,16.2,76.48Z"/><path class="cls-2" d="M24.64,66.61a3.78,3.78,0,0,0-4.57,0,4.78,4.78,0,0,0-1.47,2.21,12,12,0,0,0,0,6.93A4.73,4.73,0,0,0,20.07,78a3.78,3.78,0,0,0,4.57,0,4.73,4.73,0,0,0,1.47-2.21,12,12,0,0,0,0-6.93A4.78,4.78,0,0,0,24.64,66.61Zm-1.12,8.92c-.27.73-.66,1.09-1.16,1.09s-.89-.36-1.17-1.09a10.25,10.25,0,0,1-.4-3.24,10.16,10.16,0,0,1,.4-3.24c.28-.74.66-1.1,1.17-1.1s.89.36,1.16,1.1a9.88,9.88,0,0,1,.4,3.24A10,10,0,0,1,23.52,75.53Z"/><path class="cls-2" d="M34.27,66.61a3.78,3.78,0,0,0-4.57,0,4.78,4.78,0,0,0-1.47,2.21,12,12,0,0,0,0,6.93A4.73,4.73,0,0,0,29.7,78a3.78,3.78,0,0,0,4.57,0,4.73,4.73,0,0,0,1.47-2.21,12,12,0,0,0,0-6.93A4.78,4.78,0,0,0,34.27,66.61Zm-1.12,8.92c-.27.73-.66,1.09-1.16,1.09s-.89-.36-1.17-1.09a10.25,10.25,0,0,1-.4-3.24,10.16,10.16,0,0,1,.4-3.24c.28-.74.66-1.1,1.17-1.1s.89.36,1.16,1.1a9.88,9.88,0,0,1,.4,3.24A10,10,0,0,1,33.15,75.53Z"/><path class="cls-2" d="M49.21,73.35a3.1,3.1,0,0,0-3.85,0,4,4,0,0,0,0,4.71,3.1,3.1,0,0,0,3.85,0,3.95,3.95,0,0,0,0-4.71Zm-1.92,3.9a.68.68,0,0,1-.67-.45,2.72,2.72,0,0,1-.2-1.09,2.54,2.54,0,0,1,.19-1.06.68.68,0,0,1,.68-.42c.56,0,.84.49.84,1.48S47.85,77.25,47.29,77.25Z"/><path class="cls-2" d="M42.25,71.22a4,4,0,0,0,0-4.71,3.11,3.11,0,0,0-3.86,0,4,4,0,0,0,0,4.71,3.11,3.11,0,0,0,3.86,0ZM39.65,70a2.73,2.73,0,0,1-.19-1.09,2.54,2.54,0,0,1,.19-1.06.67.67,0,0,1,.67-.42c.56,0,.85.49.85,1.48s-.29,1.54-.85,1.54A.7.7,0,0,1,39.65,70Z"/><path class="cls-2" d="M48,66.2a.21.21,0,0,0-.1-.18.45.45,0,0,0-.28-.07h-.79a.89.89,0,0,0-.79.5L39.65,78.12a.69.69,0,0,0-.09.27.21.21,0,0,0,.1.17.55.55,0,0,0,.28.06h.79a.9.9,0,0,0,.8-.5L48,66.45A.68.68,0,0,0,48,66.2Z"/><path class="cls-2" d="M28,30.17V32a1,1,0,0,0,2,0v-1.8l.13-.1a1.59,1.59,0,1,0-2.25,0Z"/><path class="cls-2" d="M29.25,14.78a4.51,4.51,0,0,0-4.5,4.5v2.5h-4a1,1,0,0,0-1,1v13a3,3,0,0,0,3,3h13a3,3,0,0,0,3-3v-13a1,1,0,0,0-1-1h-4v-2.5A4.51,4.51,0,0,0,29.25,14.78Zm-2.5,4.5a2.5,2.5,0,0,1,5,0v2.5h-5Zm10,16.5a1,1,0,0,1-1,1h-13a1,1,0,0,1-1-1v-12h15Z"/><path class="cls-2" d="M53,10C46.36,10,32.09,3.24,30.08.4a1,1,0,0,0-1.63,0c-2.09,3-17,9.55-22.9,9.55a1,1,0,0,0-1,1v23.7C4.55,46.47,27.73,59,29,59.3a1.14,1.14,0,0,0,.52,0,31.35,31.35,0,0,0,4.3-2.36,1,1,0,1,0-1.05-1.7c-1.75,1.07-3,1.75-3.51,2a73.59,73.59,0,0,1-11.87-7.61C12.44,45.77,6.55,40,6.55,34.65V11.9C12.69,11.33,25.34,6,29.26,2.45,33.08,6,45.28,11.38,52,11.91v24c0,2.8-2.63,6.58-7.6,10.93a1,1,0,0,0,1.32,1.5c5.49-4.8,8.28-9,8.28-12.43V11A1,1,0,0,0,53,10Z"/><path class="cls-2" d="M40.07,50.28c-.86.64-1.72,1.26-2.56,1.84a1,1,0,0,0,.58,1.82,1,1,0,0,0,.57-.18c.85-.59,1.73-1.22,2.61-1.88a1,1,0,0,0,.2-1.4A1,1,0,0,0,40.07,50.28Z"/></svg>